HIERARCHY
ROOT root
{
	OFFSET	0	13.1	24.9
	CHANNELS 6  Xposition Yposition Zposition Xrotation Yrotation Zrotation
	JOINT spine_1
	{
		OFFSET	0	9.99999	0
		CHANNELS 3  Xrotation Yrotation Zrotation
		JOINT spine_2
		{
			OFFSET	0	112	-10
			CHANNELS 3  Xrotation Yrotation Zrotation
			JOINT spine_3
			{
				OFFSET	0	206.5	19.3
				CHANNELS 3  Xrotation Yrotation Zrotation
				JOINT spine_4
				{
					OFFSET	0	110.4	14.6
					CHANNELS 3  Xrotation Yrotation Zrotation
					JOINT neck_1
					{
						OFFSET	0	71.8	-50.3
						CHANNELS 3  Xrotation Yrotation Zrotation
						JOINT neck_2
						{
							OFFSET	0	86.2	-25.8
							CHANNELS 3  Xrotation Yrotation Zrotation
							JOINT head_ee
							{
								OFFSET	0	179.8	-8.7
								CHANNELS 3  Xrotation Yrotation Zrotation
								End Site
								{
									OFFSET	1	0	0
								}
							}
						}
					}
					JOINT left_clavicle
					{
						OFFSET	-43.2	22.4	-70.8
						CHANNELS 3  Xrotation Yrotation Zrotation
						JOINT left_shoulder
						{
							OFFSET	-93.9	-5.79999	48.7
							CHANNELS 3  Xrotation Yrotation Zrotation
							JOINT left_elbow
							{
								OFFSET	-291.4	-30.8	15.2
								CHANNELS 3  Xrotation Yrotation Zrotation
								JOINT left_lowarm_twist
								{
									OFFSET	-110.7	-3.89999	13.6
									CHANNELS 3  Xrotation Yrotation Zrotation
									JOINT left_hand
									{
										OFFSET	-110.7	-3.89999	13.6
										CHANNELS 3  Xrotation Yrotation Zrotation
										JOINT left_ee
										{
											OFFSET	-80.8	-5.10001	12.1
											CHANNELS 3  Xrotation Yrotation Zrotation
											End Site
											{
												OFFSET	1	0	0
											}
										}
									}
								}
							}
						}
					}
					JOINT right_clavicle
					{
						OFFSET	43.2	22.4	-70.8
						CHANNELS 3  Xrotation Yrotation Zrotation
						JOINT right_shoulder
						{
							OFFSET	93.9	-5.79999	48.7
							CHANNELS 3  Xrotation Yrotation Zrotation
							JOINT right_elbow
							{
								OFFSET	291.4	-30.8	15.2
								CHANNELS 3  Xrotation Yrotation Zrotation
								JOINT right_lowarm_twist
								{
									OFFSET	110.7	-3.89999	13.6
									CHANNELS 3  Xrotation Yrotation Zrotation
									JOINT right_hand
									{
										OFFSET	110.7	-3.89999	13.6
										CHANNELS 3  Xrotation Yrotation Zrotation
										JOINT right_ee
										{
											OFFSET	80.8	-5.10001	12.1
											CHANNELS 3  Xrotation Yrotation Zrotation
											End Site
											{
												OFFSET	1	0	0
											}
										}
									}
								}
							}
						}
					}
				}
			}
		}
	}
	JOINT left_hip
	{
		OFFSET	-82.8	-127.5	0.300001
		CHANNELS 3  Xrotation Yrotation Zrotation
		JOINT left_knee
		{
			OFFSET	-28.2	-396.7	2.2
			CHANNELS 3  Xrotation Yrotation Zrotation
			JOINT left_ankle
			{
				OFFSET	-11.7	-411.3	35.4
				CHANNELS 3  Xrotation Yrotation Zrotation
				JOINT left_toes
				{
					OFFSET	0	-60	-88.6
					CHANNELS 3  Xrotation Yrotation Zrotation
					JOINT left_foot_ee
					{
						OFFSET	-22.5	-16.5	-42.2
						CHANNELS 3  Xrotation Yrotation Zrotation
						End Site
						{
							OFFSET	1	0	0
						}
					}
				}
			}
		}
	}
	JOINT right_hip
	{
		OFFSET	82.8	-127.5	0.300001
		CHANNELS 3  Xrotation Yrotation Zrotation
		JOINT right_knee
		{
			OFFSET	28.2	-396.7	2.2
			CHANNELS 3  Xrotation Yrotation Zrotation
			JOINT right_ankle
			{
				OFFSET	11.7	-411.3	35.4
				CHANNELS 3  Xrotation Yrotation Zrotation
				JOINT right_toes
				{
					OFFSET	0	-60	-88.6
					CHANNELS 3  Xrotation Yrotation Zrotation
					JOINT right_foot_ee
					{
						OFFSET	22.5	-16.5	-42.2
						CHANNELS 3  Xrotation Yrotation Zrotation
						End Site
						{
							OFFSET	1	0	0
						}
					}
				}
			}
		}
	}
}
MOTION
Frames: 14
Frame Time: 0.02
2585.23376249 772.572 -1533.55750378 2.57764031519 58.4767227962 -10.0013040208 1.02398 0.661812 3.68008 1.03141 0.426463 3.71467 1.06103 -0.294936 3.7274 1.04177 0.297019 3.72724 -9.90254 9.01459 -8.91282 -9.80655 22.9697 -6.49089 -0.0 0.0 -0.0 -2.6479 19.9197 -1.57458 -8.23607 -17.1742 71.5915 0.271842 -7.66964 0.0182217 -15.2876 -0.781958 1.78573 -0.824837 18.4001 2.47245 -0.0 0.0 -0.0 7.65339 20.506 -14.1673 -10.6429 30.3763 -62.6791 2.05636 45.5243 -0.862894 -21.3428 1.21886 -2.42586 1.44147 -22.8387 -17.7484 0.0 0.0 0.0 15.405 25.215 -3.14212 -39.5883 -0.440781 5.94057 2.80515 26.3745 -0.428784 8.6637 -0.0 -0.0 -0.0 0.0 -0.0 24.6646 14.3566 0.719841 -23.1889 -0.244158 -3.52591 -14.5859 19.2372 -2.47476 -2.5071 0.0 0.0 0.0 0.0 0.0 
2583.6880078 772.572 -1527.67081998 2.69819247968 60.0330124237 -10.1415577328 1.02398 0.661812 3.68008 1.03141 0.426463 3.71467 1.06103 -0.294936 3.7274 1.04177 0.297019 3.72724 -9.90254 9.01459 -8.91282 -9.80655 22.9697 -6.49089 -0.0 0.0 -0.0 -2.6479 19.9197 -1.57458 -8.23607 -17.1742 71.5915 0.271842 -7.66964 0.0182217 -15.2876 -0.781958 1.78573 -0.824837 18.4001 2.47245 -0.0 0.0 -0.0 7.65339 20.506 -14.1673 -10.6429 30.3763 -62.6791 2.05636 45.5243 -0.862894 -21.3428 1.21886 -2.42586 1.44147 -22.8387 -17.7484 0.0 0.0 0.0 15.405 25.215 -3.14212 -39.5883 -0.440781 5.94057 2.80515 26.3745 -0.428784 8.6637 -0.0 -0.0 -0.0 0.0 -0.0 24.6646 14.3566 0.719841 -23.1889 -0.244158 -3.52591 -14.5859 19.2372 -2.47476 -2.5071 0.0 0.0 0.0 0.0 0.0 
2589.08889803 775.473 -1524.81720844 -0.180878986515 59.5890103566 -7.45199537693 1.06556 0.699951 3.74547 1.07325 0.460373 3.78235 1.10562 -0.271641 3.80054 1.08562 0.331549 3.79579 -10.4668 9.0361 -8.81226 -10.4139 22.9016 -6.25892 -0.0 0.0 -0.0 -2.37011 20.2339 -1.10824 -8.56769 -16.953 70.701 0.26338 -7.43362 0.0171097 -15.1911 -0.775554 1.77517 -0.856023 19.209 2.62861 -0.0 0.0 -0.0 7.22307 21.0192 -13.1822 -10.4813 30.0829 -61.8882 2.11691 46.3548 -0.906404 -20.5574 1.1584 -2.34546 1.46696 -20.0538 -17.0648 0.0 0.0 0.0 17.1717 24.4331 -2.59926 -34.5188 -0.155365 5.21597 0.944545 28.4577 -0.146836 7.63976 -0.0 -0.0 -0.0 0.0 -0.0 24.4159 14.0703 0.606806 -19.6353 -0.2998 -2.98355 -11.4712 19.4859 -1.94419 -1.8175 0.0 0.0 0.0 0.0 0.0 
2579.65397439 770.892 -1521.12938717 -1.3349539512 60.9023398861 -6.49220495094 0.948488 0.850412 3.96251 0.957023 0.596752 4.00849 1.00143 -0.188151 4.04824 0.978848 0.453024 4.02724 -10.7252 8.90698 -8.65854 -10.6917 22.5376 -6.08514 -0.0 0.0 -0.0 -1.8092 20.8031 -0.193673 -9.58543 -16.5213 69.2964 0.252512 -7.13008 0.015732 -15.1823 -0.774971 1.77421 -0.801852 20.1787 3.36094 -0.0 0.0 -0.0 7.56387 21.5579 -13.8837 -8.26526 29.886 -61.3263 2.18903 47.3121 -0.959009 -19.6219 1.08782 -2.24863 1.3142 -16.7122 -15.023 0.0 0.0 0.0 19.1686 22.599 -3.38166 -26.883 0.150779 4.08503 0.490083 28.8539 -0.0764578 6.56753 -0.0 -0.0 -0.0 0.0 -0.0 24.0135 13.8585 0.550842 -15.571 -0.322088 -2.3605 -7.78202 19.2139 -1.30821 -0.318759 0.0 0.0 0.0 0.0 0.0 
2486.30675787 773.465 -1595.28588624 -8.646296546 56.8512887391 7.21530874105 2.38681 0.041098 0.805384 2.38717 -0.0102322 0.806366 2.38696 -0.146593 0.792997 2.38608 -0.0195182 0.806195 -7.58969 11.2277 -1.4003 -7.60696 21.922 1.00911 -0.0 0.0 -0.0 -1.85213 18.9612 -0.557657 -7.92504 -16.9503 66.9008 0.83585 -22.4921 0.166204 -14.969 -0.76088 1.75083 -0.442338 16.4751 3.99656 -0.0 0.0 -0.0 6.00075 17.5618 -10.7991 -19.3578 26.9633 -64.4479 1.30613 32.902 -0.385694 -13.8395 0.687713 -1.62614 1.14616 -8.96473 -11.1814 0.0 0.0 0.0 15.5967 19.2188 -8.61392 -9.10825 0.266507 1.37096 10.1906 21.9925 -1.49256 2.82513 -0.0 -0.0 -0.0 0.0 -0.0 25.8699 11.1034 -5.9393 -25.9047 -0.179017 -3.93755 0.960705 16.3789 0.154455 3.71011 -0.0 -0.0 0.0 0.0 0.0 
2485.59842685 773.465 -1593.43570061 -8.72460799619 57.1839746994 7.30866538775 2.38681 0.041098 0.805384 2.38717 -0.0102322 0.806366 2.38696 -0.146593 0.792997 2.38608 -0.0195182 0.806195 -7.58969 11.2277 -1.4003 -7.60696 21.922 1.00911 -0.0 0.0 -0.0 -1.85213 18.9612 -0.557657 -7.92504 -16.9503 66.9008 0.83585 -22.4921 0.166204 -14.969 -0.76088 1.75083 -0.442338 16.4751 3.99656 -0.0 0.0 -0.0 6.00075 17.5618 -10.7991 -19.3578 26.9633 -64.4479 1.30613 32.902 -0.385694 -13.8395 0.687713 -1.62614 1.14616 -8.96473 -11.1814 0.0 0.0 0.0 15.5967 19.2188 -8.61392 -9.10825 0.266507 1.37096 10.1906 21.9925 -1.49256 2.82513 -0.0 -0.0 -0.0 0.0 -0.0 25.8699 11.1034 -5.9393 -25.9047 -0.179017 -3.93755 0.960705 16.3789 0.154455 3.71011 -0.0 -0.0 0.0 0.0 0.0 
2484.89809374 773.465 -1591.57365508 -8.80497847859 57.5179752153 7.40411786524 2.38681 0.041098 0.805384 2.38717 -0.0102322 0.806366 2.38696 -0.146593 0.792997 2.38608 -0.0195182 0.806195 -7.58969 11.2277 -1.4003 -7.60696 21.922 1.00911 -0.0 0.0 -0.0 -1.85213 18.9612 -0.557657 -7.92504 -16.9503 66.9008 0.83585 -22.4921 0.166204 -14.969 -0.76088 1.75083 -0.442338 16.4751 3.99656 -0.0 0.0 -0.0 6.00075 17.5618 -10.7991 -19.3578 26.9633 -64.4479 1.30613 32.902 -0.385694 -13.8395 0.687713 -1.62614 1.14616 -8.96473 -11.1814 0.0 0.0 0.0 15.5967 19.2188 -8.61392 -9.10825 0.266507 1.37096 10.1906 21.9925 -1.49256 2.82513 -0.0 -0.0 -0.0 0.0 -0.0 25.8699 11.1034 -5.9393 -25.9047 -0.179017 -3.93755 0.960705 16.3789 0.154455 3.71011 -0.0 -0.0 0.0 0.0 0.0 
2483.23778228 773.465 -1587.01967337 -9.00840868348 58.3314698767 7.64418952658 2.38681 0.041098 0.805384 2.38717 -0.0102322 0.806366 2.38696 -0.146593 0.792997 2.38608 -0.0195182 0.806195 -7.58969 11.2277 -1.4003 -7.60696 21.922 1.00911 -0.0 0.0 -0.0 -1.85213 18.9612 -0.557657 -7.92504 -16.9503 66.9008 0.83585 -22.4921 0.166204 -14.969 -0.76088 1.75083 -0.442338 16.4751 3.99656 -0.0 0.0 -0.0 6.00075 17.5618 -10.7991 -19.3578 26.9633 -64.4479 1.30613 32.902 -0.385694 -13.8395 0.687713 -1.62614 1.14616 -8.96473 -11.1814 0.0 0.0 0.0 15.5967 19.2188 -8.61392 -9.10825 0.266507 1.37096 10.1906 21.9925 -1.49256 2.82513 -0.0 -0.0 -0.0 0.0 -0.0 25.8699 11.1034 -5.9393 -25.9047 -0.179017 -3.93755 0.960705 16.3789 0.154455 3.71011 -0.0 -0.0 0.0 0.0 0.0 
2482.08561971 773.465 -1583.73395696 -9.16155627402 58.9155329112 7.8235663684 2.38681 0.041098 0.805384 2.38717 -0.0102322 0.806366 2.38696 -0.146593 0.792997 2.38608 -0.0195182 0.806195 -7.58969 11.2277 -1.4003 -7.60696 21.922 1.00911 -0.0 0.0 -0.0 -1.85213 18.9612 -0.557657 -7.92504 -16.9503 66.9008 0.83585 -22.4921 0.166204 -14.969 -0.76088 1.75083 -0.442338 16.4751 3.99656 -0.0 0.0 -0.0 6.00075 17.5618 -10.7991 -19.3578 26.9633 -64.4479 1.30613 32.902 -0.385694 -13.8395 0.687713 -1.62614 1.14616 -8.96473 -11.1814 0.0 0.0 0.0 15.5967 19.2188 -8.61392 -9.10825 0.266507 1.37096 10.1906 21.9925 -1.49256 2.82513 -0.0 -0.0 -0.0 0.0 -0.0 25.8699 11.1034 -5.9393 -25.9047 -0.179017 -3.93755 0.960705 16.3789 0.154455 3.71011 -0.0 -0.0 0.0 0.0 0.0 
2482.65701726 773.465 -1585.37703632 -9.08428247294 58.6237575685 7.7331974319 2.38681 0.041098 0.805384 2.38717 -0.0102322 0.806366 2.38696 -0.146593 0.792997 2.38608 -0.0195182 0.806195 -7.58969 11.2277 -1.4003 -7.60696 21.922 1.00911 -0.0 0.0 -0.0 -1.85213 18.9612 -0.557657 -7.92504 -16.9503 66.9008 0.83585 -22.4921 0.166204 -14.969 -0.76088 1.75083 -0.442338 16.4751 3.99656 -0.0 0.0 -0.0 6.00075 17.5618 -10.7991 -19.3578 26.9633 -64.4479 1.30613 32.902 -0.385694 -13.8395 0.687713 -1.62614 1.14616 -8.96473 -11.1814 0.0 0.0 0.0 15.5967 19.2188 -8.61392 -9.10825 0.266507 1.37096 10.1906 21.9925 -1.49256 2.82513 -0.0 -0.0 -0.0 0.0 -0.0 25.8699 11.1034 -5.9393 -25.9047 -0.179017 -3.93755 0.960705 16.3789 0.154455 3.71011 -0.0 -0.0 0.0 0.0 0.0 
2482.27886792 773.465 -1584.29271513 -9.13512086244 58.8163753107 7.79268244691 2.38681 0.041098 0.805384 2.38717 -0.0102322 0.806366 2.38696 -0.146593 0.792997 2.38608 -0.0195182 0.806195 -7.58969 11.2277 -1.4003 -7.60696 21.922 1.00911 -0.0 0.0 -0.0 -1.85213 18.9612 -0.557657 -7.92504 -16.9503 66.9008 0.83585 -22.4921 0.166204 -14.969 -0.76088 1.75083 -0.442338 16.4751 3.99656 -0.0 0.0 -0.0 6.00075 17.5618 -10.7991 -19.3578 26.9633 -64.4479 1.30613 32.902 -0.385694 -13.8395 0.687713 -1.62614 1.14616 -8.96473 -11.1814 0.0 0.0 0.0 15.5967 19.2188 -8.61392 -9.10825 0.266507 1.37096 10.1906 21.9925 -1.49256 2.82513 -0.0 -0.0 -0.0 0.0 -0.0 25.8699 11.1034 -5.9393 -25.9047 -0.179017 -3.93755 0.960705 16.3789 0.154455 3.71011 -0.0 -0.0 0.0 0.0 0.0 
2480.47333977 773.465 -1578.94275 -9.39511540293 59.7630570274 8.09507535045 2.38681 0.041098 0.805384 2.38717 -0.0102322 0.806366 2.38696 -0.146593 0.792997 2.38608 -0.0195182 0.806195 -7.58969 11.2277 -1.4003 -7.60696 21.922 1.00911 -0.0 0.0 -0.0 -1.85213 18.9612 -0.557657 -7.92504 -16.9503 66.9008 0.83585 -22.4921 0.166204 -14.969 -0.76088 1.75083 -0.442338 16.4751 3.99656 -0.0 0.0 -0.0 6.00075 17.5618 -10.7991 -19.3578 26.9633 -64.4479 1.30613 32.902 -0.385694 -13.8395 0.687713 -1.62614 1.14616 -8.96473 -11.1814 0.0 0.0 0.0 15.5967 19.2188 -8.61392 -9.10825 0.266507 1.37096 10.1906 21.9925 -1.49256 2.82513 -0.0 -0.0 -0.0 0.0 -0.0 25.8699 11.1034 -5.9393 -25.9047 -0.179017 -3.93755 0.960705 16.3789 0.154455 3.71011 -0.0 -0.0 0.0 0.0 0.0 
2479.42098947 773.465 -1575.680321 -9.56154696956 60.3374317641 8.28715433614 2.38681 0.041098 0.805384 2.38717 -0.0102322 0.806366 2.38696 -0.146593 0.792997 2.38608 -0.0195182 0.806195 -7.58969 11.2277 -1.4003 -7.60696 21.922 1.00911 -0.0 0.0 -0.0 -1.85213 18.9612 -0.557657 -7.92504 -16.9503 66.9008 0.83585 -22.4921 0.166204 -14.969 -0.76088 1.75083 -0.442338 16.4751 3.99656 -0.0 0.0 -0.0 6.00075 17.5618 -10.7991 -19.3578 26.9633 -64.4479 1.30613 32.902 -0.385694 -13.8395 0.687713 -1.62614 1.14616 -8.96473 -11.1814 0.0 0.0 0.0 15.5967 19.2188 -8.61392 -9.10825 0.266507 1.37096 10.1906 21.9925 -1.49256 2.82513 -0.0 -0.0 -0.0 0.0 -0.0 25.8699 11.1034 -5.9393 -25.9047 -0.179017 -3.93755 0.960705 16.3789 0.154455 3.71011 -0.0 -0.0 0.0 0.0 0.0 
2478.09439574 773.465 -1571.39634619 -9.78984058351 61.0884322792 8.54889926601 2.38681 0.041098 0.805384 2.38717 -0.0102322 0.806366 2.38696 -0.146593 0.792997 2.38608 -0.0195182 0.806195 -7.58969 11.2277 -1.4003 -7.60696 21.922 1.00911 -0.0 0.0 -0.0 -1.85213 18.9612 -0.557657 -7.92504 -16.9503 66.9008 0.83585 -22.4921 0.166204 -14.969 -0.76088 1.75083 -0.442338 16.4751 3.99656 -0.0 0.0 -0.0 6.00075 17.5618 -10.7991 -19.3578 26.9633 -64.4479 1.30613 32.902 -0.385694 -13.8395 0.687713 -1.62614 1.14616 -8.96473 -11.1814 0.0 0.0 0.0 15.5967 19.2188 -8.61392 -9.10825 0.266507 1.37096 10.1906 21.9925 -1.49256 2.82513 -0.0 -0.0 -0.0 0.0 -0.0 25.8699 11.1034 -5.9393 -25.9047 -0.179017 -3.93755 0.960705 16.3789 0.154455 3.71011 -0.0 -0.0 0.0 0.0 0.0 
